<?xml version="1.0" encoding="UTF-8"?>
<svg xmlns="http://www.w3.org/2000/svg" id="Layer_1" data-name="Layer 1" viewBox="0 0 24 24" width="512" height="512"><path d="M14.953,9.381l-.408-1.262,1.073-.785c.44-.32,.615-.862,.446-1.379-.154-.476-.577-.955-1.173-.955h-1.324l-.392-1.143c-.167-.521-.628-.857-1.176-.857s-1.009,.337-1.172,.848l-.396,1.152h-1.323c-.595,0-1.018,.479-1.174,.955-.168,.517,.007,1.058,.445,1.378l1.074,.786-.407,1.262c-.169,.521,.01,1.062,.452,1.381,.435,.314,1.019,.312,1.453-.006l1.048-.771,1.048,.77c.221,.163,.476,.244,.73,.244,.251,0,.502-.078,.722-.236,.442-.318,.62-.86,.453-1.382Zm-1.037,.569c-.093,.068-.186,.067-.276,0l-1.344-.987c-.088-.064-.192-.097-.296-.097s-.208,.032-.296,.097l-1.344,.987c-.086,.062-.192,.063-.276,0-.092-.065-.121-.153-.086-.262l.519-1.606c.066-.205-.006-.43-.181-.557l-1.366-.999c-.091-.066-.119-.155-.085-.261,.053-.16,.17-.266,.224-.266h1.681c.214,0,.403-.136,.473-.338l.516-1.5c.068-.215,.373-.225,.449,.01l.511,1.49c.069,.202,.259,.338,.473,.338h1.682c.054,0,.17,.105,.223,.266,.034,.106,.006,.194-.085,.261l-1.366,.999c-.175,.127-.247,.352-.181,.558l.519,1.604c.035,.109,.007,.197-.085,.263Zm1.107,6.038c6.617-.177,8.977-3.693,8.977-6.676,0-1.629-1.185-2.98-2.737-3.254,.245-.581,.45-1.136,.596-1.63,.308-1.04,.108-2.14-.547-3.017-.67-.897-1.696-1.412-2.814-1.412H5.5c-1.118,0-2.145,.515-2.814,1.412-.655,.877-.854,1.977-.547,3.017,.146,.493,.351,1.049,.596,1.63-1.551,.275-2.735,1.626-2.735,3.254,0,2.983,2.359,6.499,8.977,6.676,.011,.143,.023,.286,.023,.431v4.08c0,2.412-2.246,2.498-2.502,2.5h-.998c-.276,0-.5,.224-.5,.5s.224,.5,.5,.5h13c.276,0,.5-.224,.5-.5s-.224-.5-.5-.5h-.998c-.256-.002-2.502-.088-2.502-2.5v-4.08c0-.145,.012-.288,.023-.431Zm7.977-6.676c0,2.623-2.066,5.45-7.802,5.667,.283-1.05,.866-1.998,1.704-2.711,1.719-1.462,3.033-3.437,3.923-5.255,1.21,.073,2.175,1.07,2.175,2.299ZM1,9.312c0-1.227,.963-2.224,2.172-2.298,.891,1.818,2.205,3.791,3.925,5.254,.838,.713,1.421,1.661,1.705,2.711-5.736-.217-7.802-3.044-7.802-5.667Zm8.019,13.688c.563-.541,.981-1.331,.981-2.5v-4.08c0-1.903-.821-3.694-2.254-4.913-2.438-2.071-4.027-5.261-4.648-7.361-.218-.735-.075-1.514,.389-2.135,.48-.643,1.214-1.011,2.014-1.011h12.997c.8,0,1.533,.368,2.014,1.011,.464,.621,.606,1.399,.389,2.135-.621,2.102-2.211,5.291-4.646,7.361-1.433,1.219-2.254,3.01-2.254,4.913v4.08c0,1.169,.418,1.959,.981,2.5h-5.961Z"/></svg>
